<?xml version="1.0" encoding="UTF-8" standalone="no"?>
<!-- Created with Inkscape (http://www.inkscape.org/) -->

<svg
   version="1.1"
   id="svg1"
   width="277"
   height="68"
   viewBox="0 0 277 68"
   sodipodi:docname="show_infos.svg"
   inkscape:version="1.3.2 (091e20e, 2023-11-25, custom)"
   inkscape:export-filename="show_info.png"
   inkscape:export-xdpi="96"
   inkscape:export-ydpi="96"
   xmlns:inkscape="http://www.inkscape.org/namespaces/inkscape"
   xmlns:sodipodi="http://sodipodi.sourceforge.net/DTD/sodipodi-0.dtd"
   xmlns:xlink="http://www.w3.org/1999/xlink"
   xmlns="http://www.w3.org/2000/svg"
   xmlns:svg="http://www.w3.org/2000/svg">
  <defs
     id="defs1">
    <rect
       x="8.2143896"
       y="20.27763"
       width="281.07851"
       height="57.975653"
       id="rect3" />
    <linearGradient
       id="linearGradient3"
       inkscape:collect="always">
      <stop
         style="stop-color:#ffb500;stop-opacity:1;"
         offset="0"
         id="stop3" />
      <stop
         style="stop-color:#ff0001;stop-opacity:0.99607843;"
         offset="1"
         id="stop4" />
    </linearGradient>
    <rect
       x="0.20488166"
       y="0.20488166"
       width="277"
       height="67.406065"
       id="rect1" />
    <linearGradient
       inkscape:collect="always"
       xlink:href="#linearGradient3"
       id="linearGradient4"
       x1="142.82205"
       y1="0.71709216"
       x2="142.16833"
       y2="68.328041"
       gradientUnits="userSpaceOnUse" />
  </defs>
  <sodipodi:namedview
     id="namedview1"
     pagecolor="#ffffff"
     bordercolor="#000000"
     borderopacity="0.25"
     inkscape:showpageshadow="2"
     inkscape:pageopacity="0.0"
     inkscape:pagecheckerboard="0"
     inkscape:deskcolor="#d1d1d1"
     inkscape:zoom="2.4404332"
     inkscape:cx="132.35355"
     inkscape:cy="39.951923"
     inkscape:window-width="1920"
     inkscape:window-height="991"
     inkscape:window-x="-9"
     inkscape:window-y="-9"
     inkscape:window-maximized="1"
     inkscape:current-layer="g1" />
  <g
     inkscape:groupmode="layer"
     inkscape:label="Image"
     id="g1">
    <rect
       style="fill:url(#linearGradient4);fill-opacity:1;stroke:#ff0001;stroke-width:1.6;stroke-linecap:butt;stroke-linejoin:miter;stroke-miterlimit:7.1;stroke-dasharray:none;stroke-opacity:1;paint-order:normal"
       id="rect2"
       width="276.59024"
       height="67.406075"
       x="0.40976298"
       y="0.40976319"
       inkscape:label="fond"
       ry="13.522189" />
    <path
       d="m 26.451103,50.799141 -2.89064,-9.579933 H 14.048238 L 11.19121,50.799141 H 8.132509 l 9.377776,-31.080596 h 2.72258 l 9.344163,31.080596 z M 22.652936,37.75136 19.963968,28.388168 q -0.100833,-0.346785 -0.336121,-1.257095 -0.235284,-0.910311 -0.470569,-1.863969 -0.201673,-0.997008 -0.336122,-1.517185 -0.268896,1.343793 -0.571405,2.644235 -0.268897,1.257095 -0.470569,1.994014 l -2.72258,9.363192 z m 13.243166,13.047781 h -3.02509 V 19.84859 H 46.28224 v 3.4245 H 35.896102 v 10.967072 h 9.747508 v 3.424501 h -9.747508 z m 17.444649,0 H 50.315662 V 19.84859 H 63.72689 v 3.4245 H 53.340751 v 10.967072 h 9.747508 v 3.424501 h -9.747508 z m 21.175593,0 h -8.671923 v -2.254102 l 2.823417,-0.823612 V 22.969654 L 65.844421,22.102691 V 19.84859 h 8.671923 v 2.254101 l -2.823417,0.866963 v 24.751773 l 2.823417,0.823612 z m 14.9238,-27.959532 q -3.865396,0 -6.083794,3.337804 -2.218399,3.337805 -2.218399,9.146452 0,5.765301 2.050338,9.146453 2.08395,3.337805 6.218242,3.337805 1.546158,0 2.957866,-0.346786 1.411707,-0.346785 2.789803,-0.866962 v 3.381153 q -1.344483,0.65022 -2.789803,0.953658 -1.411708,0.303436 -3.394823,0.303436 -3.663723,0 -6.117406,-1.950664 -2.453683,-1.950665 -3.697331,-5.548558 -1.210036,-3.597894 -1.210036,-8.452882 0,-4.681597 1.310873,-8.236141 1.344484,-3.597894 3.932615,-5.591907 2.588132,-2.037361 6.285467,-2.037361 3.798168,0 6.621583,1.820621 l -1.210034,3.294456 Q 93.776104,23.879964 92.398008,23.359787 91.053524,22.83961 89.440144,22.839609 Z m 29.309736,27.959532 h -3.02508 v -14.43492 h -12.30204 v 14.43492 h -3.02508 V 19.84859 h 3.02508 V 32.93972 H 115.7248 V 19.84859 h 3.02508 z m 19.96557,0 H 125.30422 V 19.84859 h 13.41123 v 3.4245 h -10.38614 v 9.66663 h 9.78113 v 3.381152 h -9.78113 v 11.053769 h 10.38614 z M 150.61413,19.84859 q 4.4704,0 6.58797,2.210753 2.15117,2.167406 2.15117,6.588914 0,2.470842 -0.70585,4.118071 -0.70586,1.647227 -1.81506,2.644233 -1.07558,0.997006 -2.28562,1.517183 l 6.58797,13.871397 h -3.52927 l -5.8149,-12.787692 h -4.77291 v 12.787692 h -3.02509 V 19.84859 Z m -0.16807,3.381151 h -3.42843 v 11.48725 h 3.5965 q 2.92424,0 4.26873,-1.473835 1.34448,-1.517183 1.34448,-4.421509 0,-3.034367 -1.4117,-4.291463 -1.41171,-1.300443 -4.36958,-1.300443 z m 29.94839,27.5694 h -8.67193 v -2.254102 l 2.82342,-0.823612 V 22.969654 l -2.82342,-0.866963 V 19.84859 h 8.67193 v 2.254101 l -2.82342,0.866963 v 24.751773 l 2.82342,0.823612 z m 23.66294,0 h -3.52928 L 187.68829,25.093712 h -0.13445 q 0.0672,1.517184 0.16806,3.771284 0.10087,2.254103 0.10087,4.638248 v 17.295897 h -2.78981 V 19.84859 h 3.49567 l 12.8062,25.618733 h 0.13445 q -0.0335,-0.69357 -0.10087,-2.08071 -0.0337,-1.387139 -0.10088,-2.991019 -0.0337,-1.647229 -0.0337,-3.077714 V 19.84859 h 2.82342 z m 9.54584,0 h -3.02509 V 19.84859 h 13.41123 v 3.4245 h -10.38614 v 10.967072 h 9.74751 v 3.424501 h -9.74751 z m 35.3599,-15.518624 q 0,4.81164 -1.27726,8.409534 -1.24365,3.554544 -3.73094,5.548558 -2.45369,1.994013 -6.05019,1.994013 -3.73094,0 -6.21823,-1.994013 -2.45368,-1.994014 -3.66372,-5.591906 -1.21004,-3.597894 -1.21004,-8.409534 0,-4.724944 1.21004,-8.27949 1.21004,-3.597893 3.66372,-5.591906 2.48729,-1.994014 6.25185,-1.994014 3.59649,0 6.05017,1.994014 2.45369,1.950665 3.69734,5.548558 1.27726,3.554545 1.27726,8.366186 z m -18.95722,0 q 0,5.851994 1.91589,9.233148 1.91588,3.337805 5.98294,3.337805 4.06707,0 5.94935,-3.337805 1.91589,-3.381154 1.91589,-9.233148 0,-5.851995 -1.88228,-9.146452 -1.88228,-3.337804 -5.94934,-3.337804 -4.10068,0 -6.01656,3.337804 -1.91589,3.294457 -1.91589,9.146452 z m 37.88084,7.239134 q 0,4.118071 -2.31923,6.415521 -2.31923,2.29745 -6.25185,2.29745 -2.01674,0 -3.73095,-0.390133 -1.71422,-0.390133 -2.85702,-1.083702 v -3.727938 q 1.21003,0.693569 2.99147,1.257094 1.81505,0.563527 3.73095,0.563527 2.65535,0 4.03345,-1.343792 1.37809,-1.343792 1.37809,-3.641242 0,-1.517183 -0.50418,-2.557538 -0.50418,-1.040356 -1.74783,-1.907317 -1.24364,-0.866962 -3.39482,-1.907317 -3.09231,-1.430487 -4.63847,-3.511198 -1.54616,-2.080708 -1.54616,-5.678602 0,-2.427494 0.97476,-4.204767 0.97474,-1.777273 2.68896,-2.730932 1.71421,-0.953658 3.99984,-0.953658 1.9495,0 3.5965,0.476829 1.64699,0.476829 3.02509,1.257096 l -0.94114,3.337804 q -1.24366,-0.693569 -2.72258,-1.170398 -1.47894,-0.476829 -3.0251,-0.476829 -2.252,0 -3.39481,1.257094 -1.14282,1.213748 -1.14282,3.251109 0,1.560532 0.50418,2.600887 0.50419,1.040355 1.64699,1.907317 1.14282,0.823613 3.09232,1.733924 2.11756,0.997007 3.56288,2.167407 1.47894,1.127051 2.2184,2.73093 0.77308,1.60388 0.77308,4.031374 z"
       id="text2"
       style="font-size:32px;-inkscape-font-specification:sans-serif;text-align:center;text-anchor:middle;white-space:pre;fill:#ffd429;fill-opacity:1;stroke:#000000;stroke-width:1.69742;stroke-opacity:1"
       aria-label="AFFICHER INFOS" />
  </g>
</svg>
